PathFileType	4	(X/Y/Z)	E:\Qualisys_Data\Carbon_Farble_Plate\Data\Amateur_Runner\S1\T1\S1T1V22_c3d.trc
DataRate	CameraRate	NumFrames	NumMarkers	Units	OrigDataRate	OrigDataStartFrame	OrigNumFrames
200.000000	200.000000	4	39	mm	200.000000	34	278
Frame#	Time	LSHO			RSHO			LICST			RICST			LASIS			LHEEL			RASIS			LTROC			RTROC			SACR			LTH1			LSK4			LTH2			LTH3			RHM5			LSK2			LTH4			RTH1			LTOE			RTH2			RTH3			RTH4			LLEP			RLEP			LSK1			LSK3			RSK1			LHM5			RSK2			LFT1			RSK3			RSK4			LLME			RLME			RTOE			RHEEL			RFT1			RFT2			LFT2			
		X1	Y1	Z1	X2	Y2	Z2	X3	Y3	Z3	X4	Y4	Z4	X5	Y5	Z5	X6	Y6	Z6	X7	Y7	Z7	X8	Y8	Z8	X9	Y9	Z9	X10	Y10	Z10	X11	Y11	Z11	X12	Y12	Z12	X13	Y13	Z13	X14	Y14	Z14	X15	Y15	Z15	X16	Y16	Z16	X17	Y17	Z17	X18	Y18	Z18	X19	Y19	Z19	X20	Y20	Z20	X21	Y21	Z21	X22	Y22	Z22	X23	Y23	Z23	X24	Y24	Z24	X25	Y25	Z25	X26	Y26	Z26	X27	Y27	Z27	X28	Y28	Z28	X29	Y29	Z29	X30	Y30	Z30	X31	Y31	Z31	X32	Y32	Z32	X33	Y33	Z33	X34	Y34	Z34	X35	Y35	Z35	X36	Y36	Z36	X37	Y37	Z37	X38	Y38	Z38	X39	Y39	Z39	

35	0.17	-2011.717895507812	1491.498291015625	-493.7916870117188	-2022.812133789062	1440.060791015625	-167.0359497070312	-2053.63671875	1001.313720703125	-506.0611877441406	-2071.558349609375	1030.24462890625	-203.5075073242188	-2009.852416992188	969.195556640625	-471.6944580078125	-2325.72900390625	456.1595153808594	-413.6541442871094	-2026.21923828125	985.5203247070312	-206.2433166503906	-2106.3310546875	876.0158081054688	-520.3165893554688	-2131.583984375	888.9476318359375	-186.4251708984375	-2181.24072265625	1027.59375	-354.4280700683594	-1926.59521484375	782.5426635742188	-501.5408630371094	-2173.5380859375	493.9554138183594	-448.8506469726562	-1997.66259765625	745.0674438476562	-534.21337890625	-1881.743408203125	688.9435424804688	-497.7811279296875	-2038.652465820312	59.26058578491211	-228.1900634765625	-2081.7763671875	515.5026245117188	-492.0211486816406	-1956.056518554688	653.1304321289062	-520.1631469726562	-1977.322631835938	780.6260375976562	-196.3043365478516	-2248.45361328125	211.6619873046875	-418.926025390625	-2052.48681640625	761.0374755859375	-174.9049224853516	-1956.004516601562	681.8385620117188	-207.4089660644531	-2034.854858398438	663.3798828125	-194.269287109375	-1881.25439453125	527.0769653320312	-487.9769897460938	-1977.6318359375	501.4010925292969	-239.5071258544922	-2065.001708984375	434.2445373535156	-482.3678894042969	-2164.37548828125	418.2271728515625	-472.2621765136719	-2033.5576171875	318.6231384277344	-232.2943878173828	-2285.7822265625	266.7432250976562	-475.2017822265625	-2109.436279296875	348.644287109375	-236.5428009033203	-2343.140625	438.4097290039062	-383.1474304199219	-2068.87353515625	225.5387115478516	-250.7461395263672	-2143.600830078125	256.5526733398438	-264.9871826171875	-2285.656005859375	416.2641906738281	-461.9691162109375	-2146.811767578125	124.9432525634766	-252.9189453125	-1968.998779296875	64.98441314697266	-309.80029296875	-2220.71142578125	105.0717315673828	-291.3161926269531	-2218.001220703125	73.36888885498047	-322.3112182617188	-2222.50244140625	79.01622772216797	-264.7116394042969	-2352.78662109375	443.5245666503906	-437.400146484375
36	0.175	-1993.815795898438	1493.336791992188	-494.5846252441406	-2000.045288085938	1442.326782226562	-167.6385955810547	-2035.079833984375	1003.662170410156	-506.0981750488281	-2048.73095703125	1031.297607421875	-202.7424926757812	-1989.97705078125	971.535400390625	-472.7357788085938	-2293.64794921875	447.4063110351562	-414.1134948730469	-2004.081665039062	986.4600830078124	-206.3052825927734	-2086.085693359375	877.8607177734375	-519.3845825195312	-2110.14111328125	890.8704223632812	-185.0962524414062	-2159.569091796875	1028.797119140625	-351.4908752441406	-1904.075317382812	788.5792236328125	-500.4588928222656	-2144.18896484375	491.7078552246094	-449.182373046875	-1973.797241210938	748.4673461914062	-533.2476196289062	-1856.345825195312	696.1653442382812	-496.2237243652344	-2038.537353515625	58.89969635009766	-228.1293640136719	-2052.1650390625	515.6084594726562	-491.7469482421875	-1929.658935546875	658.187255859375	-519.4190063476562	-1958.710815429688	775.3667602539062	-194.6249084472656	-2204.41845703125	206.8071136474609	-419.0958557128906	-2035.67431640625	759.3392944335938	-174.9781036376953	-1941.084594726562	676.1998291015625	-206.6922607421875	-2021.377197265625	662.1168212890625	-194.8721466064453	-1851.154418945312	534.2548217773438	-486.7730407714844	-1970.156616210938	497.9614562988281	-238.5591430664062	-2032.2265625	435.5715637207031	-480.8788146972656	-2132.070556640625	416.2027587890625	-473.1549987792969	-2028.638061523438	317.2198181152344	-232.5870971679688	-2246.09033203125	260.37841796875	-476.5220031738281	-2104.57080078125	349.2593688964844	-237.9519958496094	-2311.386474609375	428.28662109375	-384.9349670410156	-2066.006591796875	225.4380340576172	-250.1997528076172	-2138.571044921875	258.7117309570312	-265.6666870117188	-2251.2958984375	408.7005004882812	-461.6760864257812	-2146.469482421875	126.5473480224609	-253.1612396240234	-1969.55126953125	63.95934677124023	-310.0179748535156	-2220.355712890625	106.0468292236328	-290.5255737304688	-2216.51806640625	75.06484985351562	-321.7674865722656	-2216.787841796875	80.71053314208984	-263.4201049804688	-2321.0703125	433.5661010742188	-437.9454345703125
37	0.18	-1975.924438476562	1495.674560546875	-494.3795166015625	-1976.846313476562	1444.667724609375	-167.9071807861328	-2012.365112304688	1004.003356933594	-505.2630920410156	-2024.947143554688	1032.527465820312	-201.4512176513672	-1955.502319335938	978.4413452148438	-464.6487121582031	-2261.411865234375	437.6090698242188	-414.6497802734375	-1981.1240234375	987.0103149414062	-205.8120574951172	-2065.919677734375	880.2779541015625	-518.6712646484375	-2087.801513671875	891.4357299804688	-183.0341033935547	-2138.4521484375	1030.134521484375	-348.6194458007812	-1881.773315429688	794.71142578125	-499.1824645996094	-2112.943359375	488.1162719726562	-449.6624145507812	-1950.18310546875	752.8090209960938	-532.6204833984375	-1830.522094726562	704.1168212890625	-494.7763671875	-2038.493530273438	59.15694427490234	-228.2106628417969	-2021.783081054688	515.288330078125	-490.7045593261719	-1903.51171875	663.464111328125	-518.4592895507812	-1940.25146484375	771.3126831054688	-195.1964721679688	-2161.666015625	201.4911041259766	-419.2894897460938	-2017.135986328125	759.0100708007812	-175.1844024658203	-1928.000854492188	670.9798583984375	-206.9471893310547	-2007.984985351562	660.611572265625	-195.1315002441406	-1821.811767578125	541.8250732421875	-485.3591003417969	-1962.455810546875	495.0398559570312	-239.3110046386719	-1998.868896484375	435.7232666015625	-479.3660888671875	-2098.030517578125	413.2368774414062	-473.0057983398438	-2023.865234375	317.532958984375	-232.7664184570312	-2203.940185546875	253.6271362304688	-476.7448425292969	-2098.769287109375	350.0885009765625	-238.0454711914062	-2278.7529296875	417.7053527832031	-384.5498657226562	-2062.894775390625	225.9502716064453	-250.6058044433594	-2135.65234375	260.4691772460938	-265.5565185546875	-2217.260986328125	401.5389099121094	-462.1751403808594	-2145.396484375	127.5537338256836	-253.0702362060547	-1969.526733398438	63.1860237121582	-310.5415954589844	-2219.710693359375	107.1412124633789	-290.4393005371094	-2216.510498046875	76.49736785888672	-322.0173645019531	-2216.4443359375	82.50736236572266	-263.4031982421875	-2284.8359375	420.65283203125	-438.5249633789062
38	0.185	-1957.842163085938	1498.023193359375	-494.9723205566406	-1954.626586914062	1447.444702148438	-168.9159698486328	-1992.208618164062	1006.838623046875	-504.5867614746094	-2001.932006835938	1034.709228515625	-201.2069396972656	-1935.02880859375	981.0013427734376	-464.646484375	-2229.09130859375	427.3067932128906	-414.6712036132812	-1958.7841796875	989.059326171875	-205.3787231445312	-2045.307373046875	883.4111328125	-517.8602905273438	-2065.269287109375	893.3585205078125	-181.9665985107422	-2116.804931640625	1031.990966796875	-346.5851745605469	-1859.365844726562	801.0203857421875	-498.1821594238281	-2082.875	484.8099975585938	-449.8398132324219	-1926.8115234375	757.6217041015625	-531.1516723632812	-1806.134765625	711.634765625	-493.5268249511719	-2038.626342773438	59.04397964477539	-228.2883453369141	-1991.757446289062	514.928955078125	-489.7862854003906	-1878.045776367188	669.4307861328125	-516.6026000976562	-1923.112548828125	767.8043212890625	-195.6764068603516	-2118.0029296875	196.1436767578125	-419.6961059570312	-1999.8291015625	758.9074096679688	-175.1891632080078	-1915.154174804688	666.852783203125	-207.9564208984375	-1996.31494140625	660.8569946289062	-195.6415863037109	-1792.421630859375	549.3195190429688	-483.4899291992188	-1952.89013671875	494.7350463867188	-239.8601684570312	-1964.929443359375	435.4747009277344	-477.9774169921875	-2064.4501953125	410.4876708984375	-472.859130859375	-2019.2119140625	318.1858215332031	-233.1533050537109	-2162.061767578125	246.6559295654297	-476.8920593261719	-2093.6005859375	352.3569946289062	-238.5182189941406	-2245.5517578125	406.4208068847656	-385.2916259765625	-2060.05517578125	227.0388793945312	-250.4881896972656	-2131.06494140625	262.7807922363281	-265.762939453125	-2183.04931640625	393.3552856445312	-462.1168518066406	-2145.08740234375	129.7877502441406	-252.4777069091797	-1969.656616210938	62.83329772949219	-310.6964111328125	-2219.484619140625	109.3095397949219	-290.4024963378906	-2215.620849609375	77.99657440185547	-321.8432922363281	-2216.07080078125	84.0041732788086	-263.1585693359375	-2251.777099609375	409.5092468261719	-439.071533203125
